<svg width="1437" height="296" viewBox="0 0 1437 296" fill="none" xmlns="http://www.w3.org/2000/svg">
<g clip-path="url(#clip0_2780_25510)">
<path d="M542.672 215.308V293.8H555.736V259H592.841V293.8H605.905V215.308H592.841V247.803H555.736V215.308H542.672ZM653.794 247.693V226.396H697.486V215.308H640.731V293.8H698.584V282.712H653.794V258.89H692.107V247.693H653.794ZM730.642 293.8H761.49C783.226 293.8 796.07 279.858 796.07 254.609C796.07 229.36 782.787 215.308 761.16 215.308H730.642V293.8ZM743.706 226.396H760.502C778.066 226.396 783.006 239.569 783.006 254.609C783.006 269.649 778.066 282.712 760.502 282.712H743.706V226.396ZM882.62 239.789H895.684C893.268 224.749 882.291 213.662 861.872 213.662C839.257 213.662 824.986 230.897 824.986 254.499C824.986 278.211 837.721 295.446 860.445 295.446C872.301 295.446 879.656 290.946 884.925 283.041H885.145L887.999 293.8H897.001V252.633H861.542V263.172H883.718C883.608 275.686 873.728 284.249 861.323 284.249C843.429 284.249 838.05 269.319 838.05 254.499C838.05 239.789 844.966 224.859 861.762 224.859C873.399 224.859 880.644 230.458 882.62 239.789ZM943.682 247.693V226.396H987.374V215.308H930.619V293.8H988.472V282.712H943.682V258.89H981.995V247.693H943.682ZM1075.9 249.23V226.396H1117.73V215.308H1062.84V293.8H1075.9V260.427H1109.83V249.23H1075.9ZM1209.39 267.014V215.308H1196.43V267.014C1196.43 278.87 1190.51 284.249 1178.43 284.249C1166.46 284.249 1160.54 278.87 1160.54 267.014V215.308H1147.47V267.014C1147.47 284.139 1156.58 295.446 1178.43 295.446C1200.28 295.446 1209.39 284.139 1209.39 267.014ZM1243.2 293.8H1256.26V235.068H1256.48L1291.94 293.8H1306.43V215.308H1293.37V274.259H1293.15L1257.8 215.308H1243.2V293.8ZM1341.26 293.8H1372.11C1393.84 293.8 1406.69 279.858 1406.69 254.609C1406.69 229.36 1393.4 215.308 1371.78 215.308H1341.26V293.8ZM1354.32 226.396H1371.12C1388.68 226.396 1393.62 239.569 1393.62 254.609C1393.62 269.649 1388.68 282.712 1371.12 282.712H1354.32V226.396Z" fill="#FB471E"/>
<path d="M667.92 65.2192C672.208 65.2192 676.087 66.6539 679.353 69.7282C682.416 73.0074 683.845 76.6966 683.845 81.2056C683.845 103.341 676.087 121.992 660.366 137.568C644.85 153.145 626.271 161.138 604.221 161.138C582.172 161.138 563.593 153.35 548.077 137.568C532.56 121.992 524.598 103.341 524.598 81.2056C524.598 59.0705 532.356 40.4197 548.077 24.8431C563.593 9.26665 582.172 1.27344 604.221 1.27344C623.617 1.27344 640.562 7.42207 655.262 19.9242C658.529 22.7936 660.57 26.4828 660.979 30.7868C661.183 35.2958 660.162 38.985 657.304 42.4692C654.445 45.7485 650.77 47.5931 646.483 48.003C641.991 48.4129 638.317 47.1832 634.846 44.3138C626.067 36.9355 615.859 33.0413 604.221 33.0413C590.951 33.0413 579.926 37.7553 570.535 47.1832C561.143 56.4061 556.447 67.6786 556.447 81.0007C556.447 94.3227 561.143 105.391 570.535 114.819C579.722 124.246 590.951 128.96 604.221 128.96C614.43 128.96 623.821 126.091 631.988 120.147C640.154 114.204 645.871 106.62 649.341 97.1921H617.9C613.409 97.1921 609.734 95.5524 606.467 92.4781C603.405 89.4038 601.976 85.7146 601.976 81.2056C601.976 76.6966 603.405 73.0074 606.467 69.7282C609.734 66.6539 613.409 65.2192 617.9 65.2192H667.92Z" fill="#FB471E"/>
<path d="M786.118 160.926C764.068 160.926 745.49 153.138 729.973 137.356C714.457 121.78 706.494 103.129 706.494 80.9938C706.494 58.8587 714.253 40.2079 729.973 24.6313C745.49 9.05475 764.068 1.06152 786.118 1.06152C808.167 1.06152 826.746 8.84979 842.263 24.6313C857.779 40.2079 865.741 58.8587 865.741 80.9938C865.741 103.129 857.983 121.78 842.263 137.356C826.746 153.138 808.167 160.926 786.118 160.926ZM786.118 33.2394C772.847 33.2394 761.823 37.9534 752.431 47.3813C743.04 56.6042 738.344 67.8767 738.344 81.1988C738.344 94.5208 743.04 105.589 752.431 115.016C761.618 124.444 772.847 129.158 786.118 129.158C799.388 129.158 810.413 124.444 819.805 115.016C829.196 105.793 833.892 94.5208 833.892 81.1988C833.892 67.8767 829.196 56.8092 819.805 47.3813C810.413 37.9534 799.388 33.2394 786.118 33.2394Z" fill="#FB471E"/>
<path d="M889.443 33.2463C884.951 33.2463 881.276 31.8116 878.01 28.7373C874.947 25.458 873.518 21.7688 873.518 17.2598C873.518 12.7508 874.947 9.0617 878.01 5.78243C881.276 2.70811 884.951 1.27344 889.443 1.27344H998.466C1002.96 1.27344 1006.63 2.70811 1009.9 5.78243C1012.96 9.0617 1014.39 12.7508 1014.39 17.2598C1014.39 21.7688 1012.96 25.458 1009.9 28.7373C1006.63 31.8116 1002.96 33.2463 998.466 33.2463H959.879V145.152C959.879 149.661 958.45 153.35 955.387 156.424C952.121 159.704 948.446 161.138 943.954 161.138C939.463 161.138 935.788 159.499 932.725 156.424C929.459 153.35 928.03 149.661 928.03 145.152V33.2463H889.443Z" fill="#FB471E"/>
<path d="M1134.84 1.27344C1148.11 1.27344 1159.13 5.98739 1168.53 15.4153C1177.92 24.6382 1182.61 35.9107 1182.61 49.2327C1182.61 59.0706 1179.75 68.0885 1174.24 76.2867C1185.88 85.9196 1191.8 98.0119 1191.8 112.974C1191.8 126.296 1187.1 137.364 1177.71 146.791C1168.53 156.219 1157.3 160.933 1144.03 160.933H1062.16C1057.67 160.933 1053.99 159.294 1050.93 156.219C1047.66 153.145 1046.23 149.456 1046.23 144.947V17.2598C1046.23 12.7508 1047.87 9.0617 1050.93 5.78243C1053.99 2.70811 1057.67 1.27344 1062.16 1.27344H1134.84ZM1078.08 65.2192H1134.84C1139.33 65.2192 1143.01 63.5795 1146.07 60.5052C1149.33 57.4309 1150.76 53.7417 1150.76 49.2327C1150.76 44.7237 1149.13 41.0346 1146.07 37.9602C1143.01 34.681 1139.33 33.2463 1134.84 33.2463H1078.08V65.2192ZM1144.03 129.165C1148.52 129.165 1152.19 127.526 1155.26 124.451C1158.52 121.377 1159.95 117.688 1159.95 113.179C1159.95 108.67 1158.32 104.981 1155.26 101.906C1152.19 98.6267 1148.52 97.1921 1144.03 97.1921H1078.08V129.165H1144.03Z" fill="#FB471E"/>
<path d="M1253.07 160.933C1248.57 160.933 1244.9 159.499 1241.63 156.424C1238.57 153.145 1237.14 149.456 1237.14 144.947V17.2598C1237.14 12.7508 1238.57 9.0617 1241.63 5.78243C1244.9 2.70811 1248.57 1.27344 1253.07 1.27344C1257.35 1.27344 1261.23 2.70811 1264.5 5.78243C1267.56 9.0617 1268.99 12.7508 1268.99 17.2598V145.152C1268.99 149.661 1267.56 153.35 1264.5 156.629C1261.23 159.499 1257.35 160.933 1253.07 160.933Z" fill="#FB471E"/>
<path d="M1312.05 33.2463C1307.56 33.2463 1303.89 31.8116 1300.62 28.7373C1297.56 25.458 1296.13 21.7688 1296.13 17.2598C1296.13 12.7508 1297.56 9.0617 1300.62 5.78243C1303.89 2.70811 1307.56 1.27344 1312.05 1.27344H1421.07C1425.57 1.27344 1429.24 2.70811 1432.51 5.78243C1435.57 9.0617 1437 12.7508 1437 17.2598C1437 21.7688 1435.57 25.458 1432.51 28.7373C1429.24 31.8116 1425.57 33.2463 1421.07 33.2463H1382.49V145.152C1382.49 149.661 1381.06 153.35 1378 156.424C1374.73 159.704 1371.06 161.138 1366.56 161.138C1362.07 161.138 1358.4 159.499 1355.33 156.424C1352.07 153.35 1350.64 149.661 1350.64 145.152V33.2463H1312.05Z" fill="#FB471E"/>
<path d="M19.8633 158.928C30.8336 158.928 39.7267 150 39.7267 138.988C39.7267 127.975 30.8336 119.047 19.8633 119.047C8.89312 119.047 0 127.975 0 138.988C0 150 8.89312 158.928 19.8633 158.928Z" fill="#FB471E"/>
<path d="M157.71 239.879C168.68 239.879 177.573 230.951 177.573 219.938C177.573 208.926 168.68 199.998 157.71 199.998C146.739 199.998 137.846 208.926 137.846 219.938C137.846 230.951 146.739 239.879 157.71 239.879Z" fill="#FB471E"/>
<path d="M443.171 124.029C438.205 119.443 433.835 118.845 429.863 119.244C429.068 119.244 428.472 119.044 427.678 119.044H216.53C225.667 73.7795 265.791 39.6814 313.463 39.6814C339.683 39.6814 364.512 49.851 383.184 68.3955C390.732 75.9729 403.047 76.5711 410.794 69.3926C419.136 61.6158 419.335 48.6546 411.39 40.6784C385.17 14.3571 350.409 0 313.463 0C280.689 0 250.298 11.5654 226.661 30.9076C215.736 39.2826 207.592 39.6814 190.311 39.6814H157.139C146.015 39.6814 137.077 48.854 137.276 60.22C137.474 70.9878 147.009 79.3628 157.735 79.3628H210.373L190.311 82.952C187.927 83.3508 185.742 84.9461 184.948 87.3389C182.167 94.5175 180.18 102.095 178.194 109.672C176.406 116.252 166.475 119.244 152.173 119.244H80.0687C69.1439 119.244 59.8081 127.619 59.4109 138.586C59.0136 149.752 68.1507 159.124 79.2742 159.124H203.818L183.359 162.514C179.783 163.112 177.598 166.502 178.393 170.092C192.496 231.907 247.517 278.368 313.463 278.368C387.554 278.368 448.335 219.544 451.911 145.964C452.11 137.589 449.13 129.613 443.171 124.029ZM313.463 238.288C265.593 238.288 225.667 204.19 216.53 158.925H410.397C401.061 204.19 361.135 238.288 313.463 238.288Z" fill="#FB471E"/>
</g>
<defs>
<clipPath id="clip0_2780_25510">
<rect width="1437" height="296" fill="white"/>
</clipPath>
</defs>
</svg>
